:SAMPLES-PER-SECOND 30
:FULLY-SPECIFIED
:DEGREES
1399
root  64.013 37.4527 22.4222 173.645 53.1926 177.051
RightUpLeg  -14.3002 -10.6489 -2.6035
RightLeg  33.3449 9.38377 6.35679
RightFoot  -13.0666 -0.127886 -2.63681
RightToes  -1.33073e-015 0 -3.6325e-017
Spine  25.8162 -2.45348 5.44655
Spine1  11.329 -0.0713601 -4.92268
HEad  -17.4951 18.1644 -26.183
LeftShoulder1  2.54962 -5.66695 -21.4395
LeftArm  -23.9901 -48.0594 -40.5738
LeftForeArm  -7.7353 -42.75 -10.8278
LeftHand  -0.0508411 3.46319 2.14291
RightShoulder  1.00427 1.10837 15.0369
RightArm  -26.4224 46.1458 28.9844
RightForeArm  -21.7411 56.8235 19.1708
RightHand  -0.354121 0.886816 -6.60785
LeftUpLeg  -18.9302 3.90678 2.19471
LeftLeg  -0.913191 -6.30287 -0.239221
LeftFoot  2.58114 1.42158 -11.7567
LeftToes  -1.93726e-010 2.42366e-011 2.16268e-013
1400
root  63.8059 37.7071 22.9256 173.727 50.1093 177.212
RightUpLeg  -13.3682 -12.358 -2.4075
RightLeg  30.6286 8.44712 5.13533
RightFoot  -11.5125 -0.0815392 -2.28189
RightToes  -1.33073e-015 0 -3.6325e-017
Spine  25.3028 -2.74031 6.54131
Spine1  11.3213 -0.0689275 -5.32274
HEad  -15.0382 16.5221 -25.8466
LeftShoulder1  2.57137 -5.53753 -22.1403
LeftArm  -21.3612 -44.7577 -42.8069
LeftForeArm  -7.63339 -44.7447 -11.5932
LeftHand  -0.0393203 2.31617 0.956261
RightShoulder  0.984777 0.765909 16.4366
RightArm  -23.9472 43.8497 28.6493
RightForeArm  -21.8403 59.0678 20.9988
RightHand  -0.486613 1.62752 -8.21881
LeftUpLeg  -18.4252 4.56239 2.19592
LeftLeg  0.207972 0.389508 -1.08081
LeftFoot  2.22685 1.44173 -12.204
LeftToes  -1.93726e-010 2.42366e-011 2.16268e-013
1401
root  63.5617 37.9643 23.3794 173.492 46.6004 176.319
RightUpLeg  -13.1115 -14.6698 -3.11561
RightLeg  28.3194 7.738 4.26838
RightFoot  -9.91809 -0.0386437 -2.19604
RightToes  -1.33073e-015 0 -3.6325e-017
Spine  25.2852 -2.89844 5.93128
Spine1  10.2673 -0.798194 -4.18992
HEad  -14.1544 16.1091 -26.2472
LeftShoulder1  2.3755 -4.52501 -23.3332
LeftArm  -19.0397 -41.4567 -44.3621
LeftForeArm  -8.76084 -46.367 -12.3454
LeftHand  -0.0759891 1.72775 2.17457
RightShoulder  1.00058 0.769154 16.8581
RightArm  -22.2764 41.697 29.4156
RightForeArm  -19.2159 60.2647 21.9125
RightHand  -0.416496 1.48256 -7.2225
LeftUpLeg  -18.4704 3.97591 1.24813
LeftLeg  2.61185 1.76382 -0.985335
LeftFoot  2.27694 1.1221 -9.49828
LeftToes  -1.93726e-010 2.42366e-011 2.16268e-013
1402
root  63.3701 38.1758 23.752 173.502 43.3105 175.642
RightUpLeg  -12.9515 -17.3149 -3.79596
RightLeg  26.4001 7.31265 3.70602
RightFoot  -8.6025 0.00210085 -2.54875
RightToes  -1.33073e-015 0 -3.6325e-017
Spine  24.1201 -2.93605 6.20382
Spine1  10.5691 -0.95023 -3.96774
HEad  -13.2811 15.2154 -26.1607
LeftShoulder1  2.28496 -4.03868 -24.0702
LeftArm  -16.7332 -38.6185 -45.2569
LeftForeArm  -8.47334 -47.9646 -13.0246
LeftHand  -0.103513 2.03518 3.24943
RightShoulder  0.898653 0.164373 18.0435
RightArm  -20.0599 40.2807 29.1939
RightForeArm  -18.8686 60.7831 22.4089
RightHand  -0.427918 2.37695 -6.56995
LeftUpLeg  -18.2731 4.20665 0.739267
LeftLeg  5.74629 -0.308978 -1.12681
LeftFoot  1.33011 1.08051 -9.79095
LeftToes  -1.93726e-010 2.42366e-011 2.16268e-013
1403
root  63.1641 38.3498 24.0783 173.414 40.1665 175.329
RightUpLeg  -12.2289 -19.8557 -4.42995
RightLeg  24.4219 7.01896 3.24505
RightFoot  -7.5089 0.0168092 -2.032
RightToes  -1.33073e-015 0 -3.6325e-017
Spine  22.6146 -3.04232 7.56772
Spine1  11.85 -0.541245 -4.91835
HEad  -11.821 13.7307 -25.2391
LeftShoulder1  2.35399 -4.23542 -24.204
LeftArm  -14.8467 -36.1081 -45.839
LeftForeArm  -7.35136 -49.1236 -13.5267
LeftHand  -0.111754 2.64096 4.4198
RightShoulder  0.774584 -0.434305 18.8736
RightArm  -18.4747 38.9181 28.299
RightForeArm  -18.9823 61.8497 23.4987
RightHand  -0.542703 2.184 -8.45938
LeftUpLeg  -17.5241 5.03384 0.478347
LeftLeg  9.16254 -3.02965 -1.0918
LeftFoot  0.436534 0.993475 -9.63445
LeftToes  -1.93726e-010 2.42366e-011 2.16268e-013
1404
root  62.9262 38.4695 24.3548 173.252 37.7001 175.096
RightUpLeg  -11.6088 -21.2726 -5.0179
RightLeg  22.7904 6.27242 2.69215
RightFoot  -6.64338 0.0114154 -1.3546
RightToes  -1.33073e-015 0 -3.6325e-017
Spine  21.555 -2.92307 8.45578
Spine1  12.3778 -0.18248 -5.20247
HEad  -9.86127 13.5018 -24.711
LeftShoulder1  2.33841 -4.1046 -24.5472
LeftArm  -11.7501 -32.0311 -44.5826
LeftForeArm  -7.92679 -53.1683 -15.7409
LeftHand  -0.126771 3.52131 6.5858
RightShoulder  0.680805 -0.84977 19.3475
RightArm  -17.3061 37.5095 29.1024
RightForeArm  -17.7383 60.8987 22.4729
RightHand  -0.483825 3.16057 -7.05517
LeftUpLeg  -16.0739 5.83654 1.12211
LeftLeg  11.9456 -4.94815 -1.24443
LeftFoot  -0.256975 0.857718 -8.8224
LeftToes  -1.93726e-010 2.42366e-011 2.16268e-013
1405
root  62.6301 38.5559 24.5618 173.002 35.7348 175.015
RightUpLeg  -10.984 -21.6791 -5.70313
RightLeg  21.525 5.07804 2.28841
RightFoot  -5.51048 0.0230692 -1.20077
RightToes  -1.33073e-015 0 -3.6325e-017
Spine  21.0208 -3.04818 9.38293
Spine1  12.3126 0.0102475 -5.67515
HEad  -8.20821 13.2428 -24.7697
LeftShoulder1  2.19037 -3.43475 -25.4043
LeftArm  -8.5704 -28.5906 -41.6968
LeftForeArm  -10.6472 -56.133 -17.8104
LeftHand  -0.229605 2.18682 8.15926
RightShoulder  0.721223 -0.706977 19.4946
RightArm  -14.4535 35.2461 29.6159
RightForeArm  -18.4458 58.5285 20.2838
RightHand  -0.394524 6.75777 -4.02348
LeftUpLeg  -14.1974 4.78765 2.52838
LeftLeg  14.5716 -3.26158 -0.640712
LeftFoot  -1.13679 0.798192 -8.84357
LeftToes  -1.93726e-010 2.42366e-011 2.16268e-013
1406
root  62.3214 38.5956 24.7395 172.787 33.7461 174.976
RightUpLeg  -10.3776 -21.3765 -6.53522
RightLeg  20.5212 3.28017 1.92036
RightFoot  -4.69515 -0.00998053 -0.36967
RightToes  -1.33073e-015 0 -3.6325e-017
Spine  19.9693 -2.81435 9.86424
Spine1  13.0047 0.279381 -5.32536
HEad  -6.79327 12.6022 -25.195
LeftShoulder1  2.11446 -3.07927 -25.9727
LeftArm  -10.7292 -26.8947 -43.9305
LeftForeArm  -7.64898 -54.3141 -16.4767
LeftHand  -0.146751 2.77489 5.78811
RightShoulder  0.699986 -0.767412 19.2755
RightArm  -12.7856 34.8868 30.5879
RightForeArm  -17.7397 58.5598 20.2794
RightHand  -0.36438 6.79086 -3.81276
LeftUpLeg  -12.1261 4.85007 4.31364
LeftLeg  16.7615 -2.41857 -0.50129
LeftFoot  -1.92989 0.670471 -7.99977
LeftToes  -1.93726e-010 2.42366e-011 2.16268e-013
1407
root  61.9675 38.6129 24.8881 172.795 31.5228 174.817
RightUpLeg  -10.376 -21.8488 -7.53221
RightLeg  20.1666 1.97338 1.69866
RightFoot  -3.97472 -0.0196783 -0.114861
RightToes  -1.33073e-015 0 -3.6325e-017
Spine  18.8678 -2.93522 10.4975
Spine1  13.2757 0.394456 -5.81157
HEad  -5.29608 12.2522 -25.34
LeftShoulder1  2.0122 -2.74623 -26.0578
LeftArm  -17.1704 -25.3016 -48.5691
LeftForeArm  0.160853 -51.0817 -13.9527
LeftHand  -0.0844116 3.07071 3.38057
RightShoulder  0.677654 -0.895961 19.7241
RightArm  -10.6079 34.6221 31.7772
RightForeArm  -17.6424 58.3999 20.1386
RightHand  -0.324577 6.71061 -3.4552
LeftUpLeg  -10.3219 4.53419 6.03923
LeftLeg  18.3003 -2.27923 -0.522267
LeftFoot  -2.42516 0.580385 -7.25054
LeftToes  -1.93726e-010 2.42366e-011 2.16268e-013
1408
root  61.5749 38.5929 25.0372 172.776 28.6009 175.182
RightUpLeg  -9.85072 -23.2554 -8.51075
RightLeg  19.9727 1.08869 1.58281
RightFoot  -3.51097 -0.0489355 0.378003
RightToes  -1.33073e-015 0 -3.6325e-017
Spine  18.0277 -3.27805 10.8358
Spine1  13.4892 -0.00578555 -5.51372
HEad  -4.11995 12.1024 -25.459
LeftShoulder1  1.90715 -2.3287 -26.5667
LeftArm  -13.5457 -22.136 -45.0586
LeftForeArm  -6.40729 -54.3333 -16.3002
LeftHand  -0.166275 2.95527 7.58139
RightShoulder  0.594156 -1.25272 20.2334
RightArm  -7.82888 34.1602 33.2978
RightForeArm  -17.1908 58.8931 20.5218
RightHand  -0.318157 6.96437 -3.34053
LeftUpLeg  -8.63281 3.57288 8.13575
LeftLeg  19.5113 -2.69773 -0.740358
LeftFoot  -2.78068 0.494945 -6.38922
LeftToes  -1.93726e-010 2.42366e-011 2.16268e-013
1409
root  61.151 38.5572 25.1469 172.64 26.3335 175.119
RightUpLeg  -9.8219 -24.1506 -9.50115
RightLeg  20.1413 0.0125568 1.04891
RightFoot  -3.1522 -0.072283 0.778766
RightToes  -1.33073e-015 0 -3.6325e-017
Spine  17.0107 -3.2938 11.2718
Spine1  14.0117 0.22179 -6.09295
HEad  -2.9912 11.3641 -25.1158
LeftShoulder1  1.83445 -2.03271 -27.0305
LeftArm  -14.7077 -20.0245 -44.7043
LeftForeArm  -4.49798 -55.0505 -16.6244
LeftHand  -0.160983 2.6842 6.43961
RightShoulder  0.51762 -1.60133 21.1262
RightArm  -6.06763 33.6991 33.9541
RightForeArm  -16.66 59.2283 20.7827
RightHand  -0.288897 7.2905 -2.95829
LeftUpLeg  -6.57516 4.01813 9.99734
LeftLeg  19.258 -3.9008 -1.19284
LeftFoot  -2.87881 0.466598 -6.0712
LeftToes  -1.93726e-010 2.42366e-011 2.16268e-013
